PathFileType	4	(X/Y/Z)	Kaydara																																																																																																																									
DataRate	CameraRate	NumFrames	NumMarkers	Units	OrigDataRate	OrigDataStartFrame	OrigNumFrames																																																																																																																					
30	30	7	41	mm	30	299	341																																																																																																																					
Frame#	Time	NABA_LFHD			NABA_RFHD			NABA_LBHD			NABA_RBHD			NABA_LFTShould			NABA_RFTShould			NABA_LRRShould			NABA_RRRShould			NABA_T10			NABA_STRN			NABA_TRUN			NABA_LSHO			NABA_LUPA			NABA_LELB			NABA_LFRM			NABA_LWRA			NABA_LWRB			NABA_LFIN			NABA_RSHO			NABA_RUPA			NABA_RELB			NABA_RFRM			NABA_RWRA			NABA_RWRB			NABA_RFIN			NABA_LFWT			NABA_RFWT			NABA_LBWT			NABA_RBWT			NABA_LTHI			NABA_LKNE			NABA_LSHN			NABA_LANK			NABA_LHEE			NABA_LTOE			NABA_RTHI			NABA_RKNE			NABA_RSHN			NABA_RANK			NABA_RHEE			NABA_RTOE		
		X1	Y1	Z1	X2	Y2	Z2	X3	Y3	Z3	X4	Y4	Z4	X5	Y5	Z5	X6	Y6	Z6	X7	Y7	Z7	X8	Y8	Z8	X9	Y9	Z9	X10	Y10	Z10	X11	Y11	Z11	X12	Y12	Z12	X13	Y13	Z13	X14	Y14	Z14	X15	Y15	Z15	X16	Y16	Z16	X17	Y17	Z17	X18	Y18	Z18	X19	Y19	Z19	X20	Y20	Z20	X21	Y21	Z21	X22	Y22	Z22	X23	Y23	Z23	X24	Y24	Z24	X25	Y25	Z25	X26	Y26	Z26	X27	Y27	Z27	X28	Y28	Z28	X29	Y29	Z29	X30	Y30	Z30	X31	Y31	Z31	X32	Y32	Z32	X33	Y33	Z33	X34	Y34	Z34	X35	Y35	Z35	X36	Y36	Z36	X37	Y37	Z37	X38	Y38	Z38	X39	Y39	Z39	X40	Y40	Z40	X41	Y41	Z41
																																																																																																																												
299	9.943	271.7205	1421.84601	1327.00577	102.84775	1388.57803	1333.81058	281.21607	1501.13907	1229.18373	66.13574	1453.21854	1263.59894	249.23304	1274.48479	1145.05051	124.12889	1264.15604	1152.1698	246.6153	1355.07843	1046.7012	102.20097	1343.61923	1062.40135	180.8176	1203.99536	946.09467	194.05317	1209.02931	1187.31567	199.6814	1105.61424	1219.76639	340.53364	1311.74179	1104.85054	406.20682	1091.20789	1063.22723	410.81032	988.02849	1085.19012	399.05148	905.2327	1067.69737	334.13273	768.5611	1158.15102	406.8708	763.47244	1153.79578	385.5056	713.18642	1203.31566	39.95667	1297.45071	1130.1609	-27.3647	1101.02196	1055.70015	-38.27981	966.59676	1103.63518	-36.15695	871.63559	1108.64807	49.53829	747.45476	1164.81522	-21.67174	734.46548	1181.46652	0.85548	696.79512	1206.47049	320.60799	911.77116	1129.31969	54.72991	906.03096	1138.43849	265.39135	965.20027	958.08556	97.29768	983.5006	963.11813	334.90559	603.75084	1070.7766	331.94244	480.18017	1173.90541	287.75301	299.77829	1255.0679	325.33825	136.61597	1236.76529	271.62277	72.16547	1196.07903	304.49606	85.90398	1383.63937	69.30919	628.69675	979.63562	89.99074	457.23747	1080.26299	118.72543	285.85562	1031.36665	124.12831	111.3197	927.88292	173.84653	78.75303	850.89821	156.50798	51.10226	1024.59671
300	9.977	276.24872	1419.3692	1341.68259	107.21066	1387.00104	1348.44437	286.16913	1498.7677	1243.75656	70.82586	1451.97403	1278.43414	253.07167	1272.68555	1159.78127	127.74944	1262.73254	1166.25	251.08	1353.35373	1061.4048	106.5339	1342.37228	1076.54427	185.30537	1202.48062	960.60631	197.474	1207.45834	1201.8235	202.62861	1104.00261	1234.24889	344.62093	1309.60434	1119.79263	409.82731	1089.03557	1077.36893	414.35268	985.74928	1098.94081	402.5391	903.28949	1080.84343	338.68336	765.69672	1170.59715	411.48521	760.65346	1165.33997	390.4491	709.6096	1214.37584	43.64471	1296.38962	1143.9608	-24.63648	1101.69754	1066.69189	-36.88379	966.46698	1112.06276	-35.85205	871.69312	1115.16396	48.54264	745.30556	1168.83766	-22.69557	732.86453	1185.05692	-0.73322	694.08691	1209.09531	323.50582	909.85229	1144.58984	57.55767	905.32356	1153.30086	269.37075	963.5994	973.15269	101.39159	982.50053	977.27135	337.06276	601.44367	1084.33807	333.34133	477.32868	1186.59851	288.72673	297.90384	1268.88176	325.168	134.49125	1251.90079	270.57854	69.82241	1212.39769	305.00782	85.23832	1399.62006	71.10252	628.31032	991.63048	90.87689	455.98564	1091.11328	118.91147	284.7003	1038.56712	123.74434	112.85825	930.32135	173.25842	82.07254	852.45018	155.93616	51.08125	1025.14572
301	10.01	281.2093	1417.31354	1357.4202	112.01174	1385.69717	1363.96729	291.57354	1496.77277	1259.6759	75.97539	1450.95551	1294.04541	257.58881	1271.0997	1175.65147	131.7848	1261.35254	1181.40038	256.21807	1351.70944	1077.29393	111.66361	1341.203	1091.67358	190.5941	1201.01486	976.18744	201.38716	1206.15051	1217.38853	206.06749	1102.60071	1249.77768	349.42833	1307.65305	1135.92247	414.09973	1087.14844	1092.57141	418.52432	983.85132	1113.91129	406.90613	901.68045	1095.05051	343.92208	762.93823	1183.56384	416.64043	758.15689	1177.95448	395.90813	706.26778	1226.20155	47.99301	1295.44556	1158.59764	-20.93172	1102.72049	1078.05443	-35.0742	966.82312	1120.53207	-34.65765	871.84174	1121.83067	47.6099	743.86032	1174.43298	-24.21705	731.57562	1189.30649	-2.72766	692.33635	1213.04977	326.89648	907.70706	1161.01028	60.76147	904.05258	1167.66518	273.88285	962.14676	989.29947	105.9797	981.60469	992.41653	339.47716	599.07642	1098.03833	335.08297	474.04964	1198.65402	289.88943	294.66965	1280.38269	325.0729	131.03496	1262.68448	269.43668	66.99779	1223.54408	306.18082	80.99732	1410.4834	73.08913	628.13061	1004.38118	91.52121	454.67007	1102.71469	118.89236	283.71557	1046.16821	123.11357	114.93355	932.96715	172.53464	86.00574	854.3145	155.14051	51.03891	1025.87929
302	10.043	286.4607	1415.6163	1374.17053	117.12401	1384.64508	1380.37781	297.38756	1494.91974	1276.29913	81.5121	1449.95697	1310.37201	262.62009	1269.50424	1192.68425	136.5797	1259.95148	1197.55798	262.06106	1349.88953	1094.24301	117.42531	1339.8912	1107.66121	196.7021	1199.32114	992.9055	205.90826	1204.76135	1234.0567	209.96496	1101.31744	1266.49574	354.85401	1305.59799	1153.31841	419.27578	1085.29968	1109.07463	423.62679	981.88362	1129.88609	412.23251	900.03098	1110.24788	349.36653	760.00145	1197.25334	422.28603	755.56229	1191.31638	401.42181	702.72003	1238.71819	52.99828	1294.4194	1174.12529	-15.67803	1103.65875	1089.69208	-32.32161	967.22626	1129.12315	-32.82767	872.1637	1128.89877	46.95508	742.68234	1182.08603	-25.4924	730.71785	1194.47662	-4.94796	691.07605	1218.24631	330.80994	905.56702	1178.88695	64.47599	902.8627	1183.28026	278.97141	960.81779	1006.76689	111.37859	980.69931	1008.64006	341.90014	596.92081	1112.08069	337.18735	470.10464	1210.09132	291.45912	289.74812	1289.02985	325.19482	126.23244	1268.60962	268.6924	63.29972	1229.0126	307.64048	73.42971	1415.59555	75.79925	627.9221	1018.05748	92.08154	453.35762	1114.9633	118.7054	282.78233	1054.24667	122.63417	117.44699	935.8168	172.08296	90.52657	856.51314	154.21618	51.04544	1026.76292
303	10.077	292.01206	1414.27765	1392.258	122.48122	1383.88245	1397.76596	303.56424	1493.45123	1294.38629	87.38213	1449.30984	1327.69333	268.31127	1267.91748	1211.38443	142.04289	1258.9901	1214.61479	268.89015	1348.58246	1112.3539	123.94598	1339.26544	1124.45206	203.75706	1198.27843	1011.38519	210.89272	1203.34625	1251.59035	214.17334	1099.96132	1284.43405	361.07849	1303.56522	1172.14821	425.303	1083.21671	1126.73683	429.43398	979.58305	1146.91849	418.10658	898.26828	1126.30234	355.23434	756.51917	1210.11841	428.26939	752.63985	1205.26764	407.2319	699.01955	1251.93085	58.69059	1293.56857	1190.38139	-8.78778	1104.22256	1101.84898	-27.99358	967.4424	1138.57521	-29.99175	872.56897	1137.17957	46.93877	741.97166	1192.16591	-26.38913	730.16396	1201.02249	-7.3291	690.07881	1224.99123	335.21069	903.90312	1197.83501	68.71447	901.67076	1199.70192	285.18351	960.32219	1025.28824	116.94177	979.93797	1025.61256	344.41055	596.544	1125.56709	339.84943	467.38983	1220.2816	292.71996	286.84847	1297.26349	325.00164	123.4618	1273.43719	267.47635	62.85173	1233.92212	309.89214	63.25491	1419.78363	78.99799	627.57488	1033.01056	93.48745	452.03327	1128.59261	119.02367	282.10808	1063.3651	122.18504	120.84361	939.29832	171.57871	96.2455	859.37202	153.24297	51.09967	1027.99866
304	10.11	297.80567	1413.40668	1412.20703	128.09079	1383.85422	1416.68869	310.29184	1493.00766	1314.79614	93.69299	1449.80988	1346.77597	274.00883	1267.40623	1231.27785	148.4037	1260.00717	1233.1398	276.15917	1348.69064	1132.5753	130.71663	1340.54184	1143.01964	210.36327	1199.60205	1029.84131	216.10319	1202.81189	1270.28969	218.36094	1099.32434	1302.8949	367.33833	1302.41913	1192.7179	431.54686	1082.31033	1145.96703	435.34691	978.61626	1165.39284	424.38129	897.90329	1143.69766	361.77242	754.71321	1224.93752	434.85081	751.09406	1220.27603	413.65028	696.1393	1265.74722	64.65676	1294.23615	1207.90565	-1.36918	1105.93063	1115.35416	-22.54289	969.24873	1150.61569	-26.01572	874.82864	1147.72873	47.33918	742.52426	1204.53758	-26.8165	731.45599	1209.38988	-9.26214	690.7534	1233.29491	339.97322	905.69832	1215.81894	73.85565	901.62361	1216.53458	292.11971	962.93098	1043.88809	121.96828	980.8033	1042.99416	348.34946	598.57098	1139.53735	343.4153	467.71755	1232.30759	294.46949	285.68884	1305.8316	325.92709	122.52988	1280.54092	268.22943	64.10746	1238.18932	307.87113	53.73625	1425.65277	83.16916	628.07793	1049.76028	96.584	451.95343	1145.16258	119.96661	282.99139	1074.48143	121.73242	126.31102	943.98438	170.69954	104.48168	863.5524	152.03087	51.20864	1029.85474
305	10.143	304.10627	1412.48016	1432.71301	134.16152	1384.06754	1436.64948	317.36067	1492.31949	1335.5191	100.37198	1450.55466	1366.85257	279.95005	1268.0323	1251.56006	154.49101	1261.17638	1252.19948	282.55001	1349.73312	1153.13599	137.384	1342.27478	1162.30316	217.15971	1201.39046	1048.93929	221.3995	1203.84117	1290.24048	223.05168	1099.8204	1321.54129	373.18996	1303.03192	1213.74321	437.36732	1083.52913	1166.63147	441.22665	979.7625	1185.22675	431.07445	899.44237	1162.20757	368.79635	754.23141	1239.91371	441.89426	751.53053	1236.47507	420.38685	695.33447	1280.40527	70.61604	1296.49887	1226.63033	6.57556	1109.70062	1130.5999	-16.34405	972.84897	1163.70316	-21.00018	878.74603	1159.39812	47.95109	744.44374	1216.52245	-26.44959	734.70917	1219.20212	-10.47287	693.45543	1243.42667	345.64732	907.23312	1234.0123	79.6739	902.7243	1233.6657	298.27848	964.95781	1062.10808	128.1239	982.58888	1060.71037	353.49346	600.17685	1154.65378	346.98502	467.70416	1244.88983	295.82441	284.32661	1314.22852	325.51743	121.79622	1285.75363	268.1848	65.0243	1241.25923	301.94576	48.29476	1429.79919	86.94322	628.84457	1067.72064	99.5416	452.50786	1164.19327	120.52734	284.64401	1087.53273	120.68893	133.52784	950.31433	169.17366	114.88858	869.19014	150.39366	51.47033	1032.45522
